# xmcd CD database file
#
# Track frame offsets:
#	150
#	24496
#	48899
#	68630
#	87232
#	114533
#	133909
#	161234
#	183825
#	198905
#
# Disc length: 2925 seconds
#
# Revision: 0
# Processed by: cddbd v1.5.2PL0 Copyright (c) Steve Scherf et al.
# Submitted via: CDex 1.70beta2
#
DISCID=820b6b0a
DTITLE=Kari Bannerman - Ghana Gone Jazz
DYEAR=2001
DGENRE=Jazz
TTITLE0=Ghana gone jazz
TTITLE1=Ete sen
TTITLE2=Best man
TTITLE3=Fe fe
TTITLE4=Eshe ono
TTITLE5=Adwoa
TTITLE6=Rwanda
TTITLE7=Cry of the Pigmy
TTITLE8=Don't use me
TTITLE9=Densu - Hilife jazz medley
EXTD=YEAR: 2001
EXTT0=
EXTT1=
EXTT2=
EXTT3=
EXTT4=
EXTT5=
EXTT6=
EXTT7=
EXTT8=
EXTT9=
PLAYORDER=
